<?xml version="1.0" encoding="UTF-8" standalone="no"?>
<!-- Created with Inkscape (http://www.inkscape.org/) -->

<svg
   style="transform: rotate(180deg); transform-origin: center;"
   width="650"
   height="760"
   viewBox="0 0 171.97916 201.08333"
   version="1.1"
   id="svg1"
   xml:space="preserve"
   inkscape:export-filename="jaime-gomez-logo.svg"
   inkscape:export-xdpi="96"
   inkscape:export-ydpi="96"
   xmlns:inkscape="http://www.inkscape.org/namespaces/inkscape"
   xmlns:sodipodi="http://sodipodi.sourceforge.net/DTD/sodipodi-0.dtd"
   xmlns="http://www.w3.org/2000/svg"
   xmlns:svg="http://www.w3.org/2000/svg"><sodipodi:namedview
     id="namedview1"
     pagecolor="#505050"
     bordercolor="#eeeeee"
     borderopacity="1"
     inkscape:showpageshadow="0"
     inkscape:pageopacity="0"
     inkscape:pagecheckerboard="0"
     inkscape:deskcolor="#505050"
     inkscape:document-units="mm"
     showguides="false"><inkscape:page
       x="0"
       y="0"
       width="171.97916"
       height="201.08333"
       id="page2"
       margin="0"
       bleed="0" /></sodipodi:namedview><defs
     id="defs1"><clipPath
       clipPathUnits="userSpaceOnUse"
       id="clipPath82"><path
         id="path83"
         style="fill:#ff0000;fill-opacity:1;fill-rule:nonzero;stroke:none;stroke-width:0.341499"
         d="m 110.77106,-98.530412 137.30899,-93.836158 4.97607,-19.38291 c -0.0956,-0.3837 -0.20472,-0.75545 -0.33944,-1.10454 -0.28888,-0.82243 -0.53883,-1.68064 -0.89236,-2.44428 -0.35202,-0.7002 -0.72684,-1.37884 -1.10448,-2.05509 -0.37087,-0.59258 -0.79831,-1.13134 -1.31643,-1.57966 -0.52156,-0.49691 -1.04292,-0.99656 -1.42008,-1.63464 l -0.61724,0.66975 c -0.28026,-0.13203 -0.55655,-0.26874 -0.78182,-0.45901 -0.65786,-0.4997 -1.23272,-1.08487 -1.63326,-1.83847 -0.1825,-0.36688 -0.22672,-0.42152 -0.36173,-0.82769 -0.19941,-0.5998 -0.28581,-1.29856 -0.45943,-1.92108 -0.11043,-0.42036 -0.19769,-0.7946 -0.34582,-1.18282 -0.31842,-0.83452 -0.80119,-1.51592 -1.33274,-2.1486 -0.28337,-0.31072 -0.56459,-0.62393 -0.84876,-0.93386 -0.4148,-0.45241 -0.8471,-0.88862 -1.14048,-1.45882 -0.29667,-0.55718 -0.64988,-1.06086 -0.94804,-1.61665 -0.25631,-0.48277 -0.49289,-0.98663 -0.8662,-1.35727 -0.33168,-0.30006 -0.71222,-0.54913 -1.0507,-0.84218 -0.49763,-0.37761 -0.97787,-0.77309 -1.45164,-1.17511 -0.23888,-0.23498 -0.45876,-0.48854 -0.66915,-0.7513 -0.129,-0.0722 -0.26133,-0.14092 -0.39833,-0.2047 -0.79053,-0.42986 -1.62275,-0.81658 -2.3213,-1.34353 -0.49061,-0.43934 -0.93081,-0.92896 -1.37285,-1.41688 -0.0609,-0.0123 -0.12186,-0.0245 -0.18295,-0.0366 -0.83919,-0.15934 -1.71449,-0.27631 -2.56764,-0.41929 -0.71881,-0.0895 -1.44852,-0.16589 -2.16212,-0.26162 -0.58313,-0.0645 -1.14789,-0.15089 -1.76798,-0.17091 -0.44495,-0.0148 -0.94017,0.0338 -1.38848,0.023 -0.78273,-0.008 -1.5306,-0.0619 -2.09251,-0.3292 -0.81949,-0.36784 -1.53698,-0.85125 -1.9041,-1.67654 -0.0657,-0.16304 -0.14375,-0.31498 -0.19709,-0.48908 -0.11545,-0.37633 -0.15781,-0.81521 -0.1421,-1.30046 -0.90096,-0.26497 -1.74377,-0.59504 -2.58134,-0.93052 -0.58691,-0.25099 -1.15879,-0.51817 -1.71733,-0.79983 -0.44165,-0.12673 -0.90148,-0.23314 -1.34711,-0.35537 -0.63181,-0.16677 -1.24914,-0.353 -1.98681,-0.39616 -0.42542,-0.0543 -0.84452,-0.11603 -1.29698,-0.13801 -0.74576,-0.0826 -1.45912,-0.20196 -2.07517,-0.43474 -0.61992,-0.20694 -1.20215,-0.45628 -1.87013,-0.60907 l 0.49557,-0.58397 c -0.14077,-0.0304 -0.27891,-0.062 -0.40491,-0.0949 -0.22432,-0.0587 -0.44047,-0.12636 -0.65484,-0.19626 l -0.41185,0.49675 c -0.35258,-0.0302 -0.16561,-0.0154 -0.56114,-0.0455 -0.57825,-0.063 -1.13126,-0.15605 -1.75313,-0.16633 -0.71831,0.002 -1.53661,0.12268 -2.08901,-0.0768 -0.39336,-0.17969 -0.71624,-0.43202 -0.97341,-0.75234 -0.29337,-0.35522 -0.53993,-0.75571 -0.85658,-1.08802 -0.57396,-0.16991 -1.18062,-0.303 -1.85286,-0.35873 -0.6436,-0.0419 -1.32448,-0.0354 -2.08215,0.0675 -0.51842,0.0753 -1.03275,0.14485 -1.54924,0.21758 -0.72373,0.10774 -1.44106,0.20616 -2.05106,0.16623 -0.86774,-0.0232 -1.67276,-0.12207 -2.39697,-0.31588 -0.72077,-0.20557 -1.39873,-0.45888 -2.03259,-0.76072 -0.0803,-0.0383 -0.12477,-0.0613 -0.15851,-0.0775 0.0706,-0.0533 0.15723,-0.20004 0.27315,-0.51566 l 0.60353,-1.5284 c -0.0792,-0.0395 -0.16022,-0.0768 -0.24291,-0.11246 -0.86858,0.20282 -1.76083,0.44099 -2.65165,0.67618 l 0.52899,-0.83632 c -0.12842,0.0113 -0.25796,0.024 -0.38694,0.036 -0.43455,0.0226 -0.85271,0.0264 -1.24327,-0.005 -0.60027,0.19073 -1.21472,0.40208 -1.76395,0.51643 -0.70825,0.1554 -1.41106,0.30343 -2.0995,0.43096 -1.04806,0.30212 -2.16516,0.7072 -3.16521,0.93659 -0.62823,0.15699 -1.2596,0.3309 -1.9736,0.61917 l 1.01114,-1.67746 c -0.5237,0.0948 -1.05846,0.20465 -1.57022,0.28296 -0.82554,0.1449 -1.66376,0.30712 -2.52892,0.50755 -0.47432,0.093 -0.93826,0.17053 -1.46351,0.3369 -0.46311,0.14315 -0.89959,0.2455 -1.37901,0.41497 -0.42274,0.15592 -0.86796,0.3478 -1.26271,0.45865 -0.53664,0.17427 -1.05619,0.32149 -1.5554,0.43971 -0.61356,0.12812 -1.20936,0.23061 -1.76962,0.28605 -0.099,0.008 -0.19905,0.018 -0.29804,0.0263 l -4.65252,3.17951 c -0.11765,0.10563 -0.23482,0.21152 -0.35201,0.31794 -0.67755,0.65019 -1.35283,1.30562 -2.00752,1.98096 -0.78446,0.82275 -1.51423,1.66903 -2.25914,2.5077 -0.57115,0.65374 -1.13562,1.3112 -1.66407,1.9705 -0.33342,0.46742 -0.65505,0.93222 -0.92691,1.38197 -0.15948,0.25971 -0.31031,0.51617 -0.45562,0.77038 -0.16478,0.41647 -0.32745,0.83174 -0.50902,1.258 -0.59605,1.43981 -1.17053,2.8669 -1.79648,4.32393 -0.16738,0.40322 -0.33399,0.80613 -0.49896,1.20796 l 1.63104,-1.15781 c -0.0376,0.18042 -0.0744,0.36029 -0.11076,0.53997 -0.1005,0.48764 -0.21652,0.98587 -0.38207,1.51813 -0.18129,0.60431 -0.3799,1.21955 -0.59175,1.84355 -0.37182,1.10825 -0.74206,2.21571 -1.06977,3.29565 -0.39096,1.33481 -0.72371,2.63056 -1.11492,3.96555 -0.32195,1.08698 -0.64104,2.17275 -1.03817,3.30827 -0.0327,0.33096 -0.0754,0.66986 -0.12329,1.01228 0.37092,1.18931 0.77642,2.34757 1.165,3.52131 0.39118,1.28941 0.76802,2.58892 1.01068,4.0084 0.26026,1.52266 0.25159,1.90183 0.40323,3.52709 0.0272,0.29127 0.0549,0.58242 0.0833,0.8727 0.063,0.22766 0.12173,0.45885 0.18743,0.68412 0.22247,0.68527 0.45093,1.36517 0.69449,2.03154 0.38394,0.9938 0.79996,1.95874 1.11172,3.01764 0.21461,0.59735 0.29461,0.84747 0.54901,1.4256 0.34,0.77276 0.74504,1.48417 1.13223,2.21298 0.11832,0.22274 0.23003,0.45172 0.34528,0.67733 0.24336,0.53686 0.45187,1.10798 0.73947,1.6039 0.18973,0.32715 0.37243,0.55735 0.60156,0.85171 0.12548,0.16121 0.25462,0.31904 0.38162,0.47879 0.68766,0.8355 1.39006,1.65631 2.10616,2.46385 0.23734,0.2173 0.33417,0.32225 0.60716,0.50413 0.50681,0.33762 1.09268,0.59247 1.64277,0.88396 0.98126,0.45102 2.00314,0.85722 3.02753,1.26095 0.32146,0.16845 0.52456,0.26228 0.81471,0.46391 0.51127,0.35528 0.9249,0.81145 1.34424,1.25956 0.77535,0.82326 1.54507,1.65526 2.5517,2.24307 0.62729,0.33799 1.25095,0.68065 1.77853,1.12332 0.43021,0.34886 0.83604,0.72246 1.31671,1.01939 0.38621,0.23516 0.80827,0.43523 1.10252,0.76517 0.30262,0.34018 0.64114,0.6438 1.02592,0.90071 0.49548,0.40296 1.0013,0.79531 1.55154,1.14158 0.37551,0.23588 0.75464,0.46827 1.21773,0.6096 0.33992,0.13247 0.66089,0.28887 1.10915,0.2969 0.45371,9.9e-4 0.9663,-0.0723 1.42975,-0.0833 0.65312,-0.0514 1.31747,-0.10574 1.74883,0.10978 0.25629,0.16544 0.44977,0.393 0.62079,0.64381 0.23846,0.32796 0.48749,0.6453 0.70994,0.98871 0.0223,0.0346 0.0447,0.0691 0.0667,0.10392 0.53462,0.15129 1.07684,0.29391 1.56984,0.49215 0.51516,0.22307 1.00892,0.4707 1.41335,0.81121 0.38239,0.29415 0.76347,0.58934 1.20703,0.81958 0.45725,0.22935 0.94605,0.42468 1.38242,0.67654 0.45696,0.23612 0.94437,0.43911 1.49304,0.57411 0.62563,0.19653 1.22123,0.43066 1.66379,0.82378 0.51674,0.48196 0.98818,1.0091 1.52669,1.46914 0.3263,0.27146 0.65907,0.53607 0.99057,0.8022 0.15132,0.1215 0.41694,0.33148 0.55178,0.47831 0.0726,0.079 0.13223,0.17071 0.19838,0.25606 l -4.79215,4.38298 c -0.50243,-0.42202 -1.02273,-0.82613 -1.52755,-1.24588 -0.55144,-0.46662 -1.03094,-1.00551 -1.55792,-1.49675 -0.36065,-0.30849 -0.84395,-0.48954 -1.34655,-0.64526 -0.6011,-0.15047 -1.13649,-0.37358 -1.63894,-0.63285 -0.43413,-0.24942 -0.91836,-0.44514 -1.37303,-0.67243 -0.49033,-0.25174 -0.91293,-0.57466 -1.33457,-0.89822 -0.354,-0.3 -0.78718,-0.51704 -1.24118,-0.71096 -0.38039,-0.14691 -0.78748,-0.26399 -1.19607,-0.3791 l -0.38171,0.32509 c -0.0404,-0.18339 -0.10922,-0.34185 -0.19028,-0.48849 -0.13746,-0.0406 -0.27374,-0.0822 -0.40794,-0.12653 -0.6294,-0.26137 -1.29016,-0.48601 -2.02466,-0.62875 -0.46748,-0.10896 -1.00636,-0.13344 -1.53182,-0.17334 -0.67351,-0.0605 -1.28845,-0.18996 -1.84833,-0.38183 -0.56176,-0.19304 -1.10817,-0.40174 -1.62678,-0.64221 -0.59719,-0.20453 -1.07032,-0.53951 -1.45149,-0.9694 -0.23518,-0.26435 -0.37218,-0.62299 -0.59404,-0.9 -0.0978,-0.12217 -0.17362,-0.18418 -0.28736,-0.28949 -0.2572,-0.28568 -0.57591,-0.50865 -0.87539,-0.75143 -0.31081,-0.26269 -0.63309,-0.51324 -0.93696,-0.78304 -0.31396,-0.32734 -0.69435,-0.58602 -1.06562,-0.85462 -0.35806,-0.27344 -0.72183,-0.54106 -1.10109,-0.79248 -0.46616,-0.34015 -0.95348,-0.65827 -1.41777,-1.00034 -0.32664,-0.30557 -0.75485,-0.50471 -1.17079,-0.71642 -0.76985,-0.37608 -1.27732,-1.02278 -1.78722,-1.6622 -0.2936,-0.35928 -0.15049,-0.1719 -0.42771,-0.56256 l 0.3304,-0.31791 c -0.008,-0.004 -0.0154,-0.007 -0.0229,-0.0112 -1.01776,-0.39101 -2.02126,-0.79708 -2.9899,-1.24192 -0.57634,-0.30365 -1.18814,-0.5708 -1.71922,-0.92277 -0.34755,-0.2303 -0.42718,-0.32238 -0.72955,-0.59474 -0.25343,-0.28099 -0.50478,-0.56421 -0.75316,-0.85023 l -0.4283,0.38165 c -0.0269,-0.0123 -0.0575,-0.0204 -0.0803,-0.0372 -0.10309,-0.0766 -0.19227,-0.16734 -0.2966,-0.24263 -0.57421,-0.41437 -1.22697,-0.74651 -1.80843,-1.15342 -0.23317,-0.16312 -0.45317,-0.34024 -0.67938,-0.51059 -0.85109,-0.74009 -1.41389,-1.7646 -1.81249,-2.93459 -0.13851,-0.40652 -0.38232,-1.3047 -0.49901,-1.72348 -0.0778,-0.30503 -0.15881,-0.60758 -0.23327,-0.91548 -0.1687,-0.69725 -0.32221,-1.40749 -0.49017,-2.10537 -0.29155,-1.21126 -0.42097,-1.60911 -0.64985,-2.94375 -0.10102,-0.58916 -0.17695,-1.1997 -0.26291,-1.80166 -0.0269,-0.047 -0.0535,-0.0943 -0.08,-0.14167 -0.55389,-0.73963 -1.02137,-1.55973 -1.3757,-2.48614 -0.2498,-0.70016 -0.50377,-1.39703 -0.75721,-2.09395 -0.0471,-0.12812 -0.0965,-0.25433 -0.14093,-0.38481 -0.0216,-0.0634 -0.26094,-0.83141 -0.28422,-0.88802 -0.22716,-0.55183 -0.57244,-0.99126 -0.91679,-1.43167 -0.39268,-0.56661 -1.00157,-0.9292 -1.23354,-1.64736 z M 140.4055,-213.95763 c 0.0525,-0.11855 0.10429,-0.23702 0.15358,-0.35394 -0.01,-0.0444 -0.0192,-0.0889 -0.0284,-0.13379 z m 3.83113,-14.92309 c 0.003,-0.009 0.005,-0.0182 0.008,-0.0274 0.10935,-0.44039 0.27404,-0.91697 0.44267,-1.39583 0.22163,-0.61184 0.4635,-1.23395 0.74573,-1.88139 0.31328,-0.69174 0.63269,-1.38743 0.9488,-2.08073 0.23546,-0.47146 0.49347,-0.9538 0.76857,-1.44378 0.0505,-0.10485 0.10271,-0.21087 0.15276,-0.31549 0.33378,-0.67657 0.82412,-1.41274 1.31368,-2.1474 0.15038,-0.21977 0.30049,-0.43955 0.45228,-0.65967 l 0.0353,-0.007 c 0.10392,-0.14932 0.20876,-0.29894 0.31448,-0.44863 0.44733,-0.60833 0.94006,-1.2193 1.45208,-1.82878 l -4.23333,2.89303 z m 28.87288,-27.43582 c 0.0255,-0.008 0.0507,-0.0153 0.0763,-0.0232 0.65641,-0.20842 1.24293,-0.31544 1.83557,-0.43168 0.88522,-0.20617 1.73982,-0.36834 2.58447,-0.51761 0.29518,-0.0469 0.59592,-0.10163 0.89759,-0.15755 l 2.61969,-4.34644 z m 13.18357,-9.01012 c 0.7639,-0.2098 1.56804,-0.48061 2.34906,-0.71626 0.97998,-0.25734 1.89067,-0.4156 2.83595,-0.62315 0.55389,-0.15842 1.13115,-0.34953 1.697,-0.52436 1.4014,-0.47141 2.82824,-0.98345 4.25506,-1.49558 2.09033,-0.84804 3.84755,-1.1812 5.5059,-1.39499 1.5725,-0.17908 2.924,-0.0877 4.17135,0.13344 1.00191,0.0842 1.82739,0.36832 2.6333,0.67656 0.43549,0.24978 0.97531,0.37948 1.46996,0.56355 0.10007,-0.0159 0.3104,-0.0711 0.6241,-0.11014 0.73668,-0.0905 1.46665,-0.17658 2.15785,-0.20764 1.8815,-0.11243 3.05346,0.58934 4.14301,1.37035 1.21474,1.30266 2.76265,2.25811 4.43466,3.08447 1.62999,0.8157 3.83523,0.99545 5.94568,1.26225 2.19801,0.28342 4.6039,0.31445 6.73392,0.67831 1.73245,0.33226 3.30905,0.84063 4.72615,1.5256 1.19766,0.69411 2.20087,1.59149 3.17513,2.51554 1.40605,1.27145 2.45197,2.89875 3.70709,4.31968 1.31293,1.41569 3.00902,2.44072 4.70619,3.46004 1.85141,1.08356 3.59129,2.28374 5.11193,3.70915 0.84267,0.92409 1.78757,1.74573 2.67911,2.6208 0.67658,0.62276 1.16369,1.4202 1.49453,2.37071 l 23.0928,-89.95158 z m 0.0296,13.90754 1.6e-4,-6.5e-4 1.8e-4,-6.6e-4 1.6e-4,-6.5e-4 c 1.2e-4,-6.2e-4 6.6e-4,-0.002 8.4e-4,-0.003 l 1.7e-4,-6.5e-4 1.7e-4,-6.6e-4 8.7e-4,-6e-4 1.7e-4,-6.6e-4 1.7e-4,-6.5e-4 8.6e-4,-5.9e-4 8.7e-4,-6e-4 8.6e-4,-5.8e-4 1.7e-4,-6.6e-4 8.6e-4,-5.7e-4 1.6e-4,-6.5e-4 8.7e-4,-6e-4 8.6e-4,-5.9e-4 0.001,-0.001 c 0.10108,-0.10043 0.16874,0.002 0.23981,0.0919 -0.0183,-0.006 -0.0392,-0.0126 -0.0625,-0.0199 -0.0504,-0.0162 -0.10593,-0.0263 -0.15343,-0.0457 -0.009,-0.004 -0.0328,-0.002 -0.0331,-0.0121 z m 0.25056,0.0772 c 0.1144,0.0368 0.14081,0.0454 0.19742,0.0725 -0.0807,0.0603 -0.14032,-6.4e-4 -0.19742,-0.0725 z" /></clipPath></defs><g
     inkscape:label="Capa 1"
     inkscape:groupmode="layer"
     id="layer1"><ellipse
       style="fill:#16232b;fill-opacity:1;stroke:none;stroke-width:0.22628"
       id="path2-4"
       cx="197.35721"
       cy="-215.29521"
       rx="55.380894"
       ry="43.227695"
       transform="matrix(-0.67089594,0.74155151,-0.98171152,0.19037458,0,0)"
       clip-path="url(#clipPath82)" /><path
       style="fill:#16232b;fill-opacity:1;stroke-width:0.994527"
       d="m 80.509976,200.55994 c -2.53217,-0.99592 -3.59686,-2.67929 -3.776344,-5.97073 -0.209352,-3.83912 1.194564,-8.87812 4.279614,-15.36055 4.39012,-9.22472 10.90126,-18.7322 26.894774,-39.27138 10.52062,-13.51079 16.1053,-21.09602 21.38632,-29.04739 12.81892,-19.300815 22.66168,-41.091745 25.82339,-57.170536 0.78251,-3.979451 0.86323,-10.419995 0.15928,-12.709885 -1.42255,-4.627449 -5.24378,-6.789405 -10.6762,-6.040325 -4.30089,0.593051 -9.09921,2.352824 -15.79084,5.791258 -3.67872,1.890274 -6.75047,3.684011 -16.60214,9.694762 -10.56267,6.444533 -14.397354,8.400161 -18.336494,9.351321 -3.51344,0.848362 -5.62922,0.589638 -6.81851,-0.83378 -1.51666,-1.815231 -0.70087,-3.450765 4.14399,-8.308074 8.42484,-8.446503 20.507604,-17.209646 32.679204,-23.700914 12.14935,-6.4794 23.72262,-9.61004 31.96059,-8.645531 8.44786,0.989084 13.43996,4.302534 15.54045,10.314787 0.53115,1.520298 0.59995,2.214327 0.60207,6.073544 0.002,4.040827 -0.0592,4.6031 -0.84547,7.745902 -3.77995,15.107977 -16.7717,38.884046 -46.55823,85.205731 -15.17839,23.60425 -23.28413,37.28103 -29.379154,49.57129 -4.23369,8.53697 -6.12718,13.34133 -6.38728,16.2064 -0.12334,1.35858 -0.0713,1.54804 0.64624,2.35691 0.68584,0.77304 0.97086,0.89346 2.35306,0.99415 2.06561,0.15048 5.06499,-0.61859 8.908604,-2.28423 1.63307,-0.70768 2.96921,-1.25243 2.96921,-1.21053 0,0.16258 -5.484204,3.53274 -7.015954,4.31145 -2.49293,1.26736 -5.4417,2.3859 -7.77535,2.94938 -2.83927,0.68558 -6.62357,0.6797 -8.38483,-0.0131 z m -63.129445,-50.0569 c -3.84386,-0.70056 -8.0174018,-2.66699 -10.4699818,-4.93312 -2.225638,-2.05643 -4.213827,-5.27772 -5.371673,-8.70327 -1.26417198,-3.7401 -1.54782098,-5.8234 -1.53866398245,-11.30103 C 0.00911222,120.08498 0.36777122,117.35099 1.8521962,111.43803 7.1320612,90.406575 22.995509,63.533705 44.174339,39.743792 55.026498,27.553704 70.029108,13.537351 83.917286,2.6135352 c 3.47081,-2.72999104 3.73472,-2.89070104 3.92535,-2.39040904 0.081,0.212383 -3.62404,6.70855004 -8.50696,14.91586284 C 65.269221,38.782168 57.914135,51.985672 50.62523,66.678645 39.96406,88.169435 33.094603,106.65293 35.040367,108.6125 c 0.970999,0.9779 2.5365,0.0716 11.091351,-6.4212 8.663556,-6.575295 13.256626,-9.907095 18.616673,-13.504535 18.752385,-12.58579 36.521449,-20.55551 52.109089,-23.37179 2.41316,-0.436 4.29715,-0.5856 7.54296,-0.59899 3.8277,-0.0158 4.55026,0.053 6.26837,0.59644 1.64697,0.52097 2.17033,0.84427 3.44528,2.12827 1.28945,1.29858 1.54699,1.72583 1.81028,3.00304 0.93908,4.55564 -2.51138,10.44875 -11.24687,19.20875 -12.92911,12.965375 -37.189694,32.193965 -54.029451,42.822975 -15.80477,9.97572 -30.522929,16.36432 -41.559774,18.03951 -3.209827,0.48719 -9.001562,0.48129 -11.707744,-0.0119 z m 18.692814,-6.33939 c 18.417677,-3.48499 46.859291,-20.89637 75.872265,-46.447505 5.20405,-4.58308 13.62266,-12.99925 15.96896,-15.96429 5.79956,-7.329 5.61307,-11.22235 -0.60823,-12.69771 -2.43604,-0.5777 -9.60137,-0.19087 -14.18079,0.76556 -15.744524,3.2883 -33.301434,11.77555 -51.877849,25.07846 -17.316141,12.400415 -30.667439,25.452595 -35.877972,35.074195 -3.007352,5.55325 -3.096642,10.69368 -0.224098,12.90023 2.209008,1.69684 6.256205,2.175 10.927714,1.29106 z"
       id="path1" /></g></svg>

